<svg width="120" height="120" viewBox="0 0 120 120" fill="none" xmlns="http://www.w3.org/2000/svg">
<path d="M95.7937 49.0219L95.7656 104.147C95.7656 105.797 94.425 107.147 92.7656 107.147H20.3812C18.7312 107.147 17.3813 105.806 17.3813 104.147L17.4 49.8188H17.3719L17.3438 44.3531C17.3438 42.6938 18.6844 41.3438 20.3437 41.3438H42.1125C43.5187 41.3438 44.7375 42.3188 45.0375 43.6875C45.3375 45.0563 46.5562 46.0313 47.9625 46.0313H92.7937C94.4437 46.0313 95.7937 47.3719 95.7937 49.0313V49.0219Z" fill="#153385" stroke="#101C3F" stroke-width="0.9375" stroke-miterlimit="10"/>
<path d="M98.6346 37.9593L80.7658 20.0249H28.7627V94.1249H98.6346V37.9593Z" fill="white" stroke="#101C3F" stroke-width="0.9375" stroke-linecap="round" stroke-linejoin="round"/>
<path d="M80.7378 20.0249V38.2593L98.6347 37.9593L80.7378 20.0249Z" fill="#48EFCF" stroke="#101C3F" stroke-width="0.9375" stroke-linejoin="round"/>
<path d="M80.7378 38.5874L98.6347 43.8655V38.2593L80.7378 38.5874Z" fill="#101C3F"/>
<path d="M17.9814 106.294L32.9064 67.7437C34.0032 64.9218 36.7126 63.0562 39.7407 63.0562H105.469C108.713 63.0562 110.925 66.328 109.734 69.3374L94.7063 107.137H18.4032C17.9626 107.137 17.7189 106.641 17.972 106.284L17.9814 106.294Z" fill="#0B64DD" stroke="#101C3F" stroke-width="0.9375" stroke-miterlimit="10"/>
<path d="M66.2061 43.2094V7.96875H57.1217V43.2094H49.2373L61.3123 53.8219L73.7436 43.2094H66.2061Z" fill="#101C3F" stroke="#101C3F" stroke-width="0.9375" stroke-miterlimit="10"/>
<path d="M61.3127 54.4221H59.3252V52.1533H61.2564L61.3127 54.4221Z" fill="#101C3F"/>
<path d="M64.2187 43.2094V7.96875H55.1344V43.2094H47.25L59.325 53.8219L71.7562 43.2094H64.2187Z" fill="white" stroke="#101C3F" stroke-width="0.9375" stroke-miterlimit="10"/>
</svg>
