<svg width="32" height="32" viewBox="0 0 32 32" fill="none" xmlns="http://www.w3.org/2000/svg">
<path d="M25.75 28H6.25V10.4395L12.6895 4H25.75V28ZM7.75 11.0605V26.5H24.25V5.5H13.3105L7.75 11.0605Z" fill="#1D2A3E"/>
<path d="M10 24.25H22V22.75H10V24.25Z" fill="#1D2A3E"/>
<path d="M19.75 11.5V21.25H21.25V11.5H19.75Z" fill="#1750BA"/>
<path d="M15.25 14.5V21.25H16.75V14.5H15.25Z" fill="#1750BA"/>
<path d="M10.75 17.5V21.25H12.25V17.5H10.75Z" fill="#1750BA"/>
<path fill-rule="evenodd" clip-rule="evenodd" d="M20.5 10L18.25 12.25H22.75L20.5 10Z" fill="#1750BA"/>
<path fill-rule="evenodd" clip-rule="evenodd" d="M16 13L13.75 15.25H18.25L16 13Z" fill="#1750BA"/>
<path fill-rule="evenodd" clip-rule="evenodd" d="M11.5 16L9.25 18.25H13.75L11.5 16Z" fill="#1750BA"/>
<path d="M12.25 10H7V11.5H13.75V4.75H12.25V10Z" fill="#1D2A3E"/>
</svg>
