<svg width="20" height="20" viewBox="0 0 20 20" fill="none" xmlns="http://www.w3.org/2000/svg">
<path fill-rule="evenodd" clip-rule="evenodd" d="M10.0003 1.25C10.4447 1.25003 10.8553 1.48628 11.0794 1.87012L19.8294 16.8701C20.0549 17.2567 20.0571 17.7345 19.8343 18.1226C19.6113 18.5107 19.1978 18.75 18.7503 18.75H1.25027C0.802685 18.75 0.389205 18.5107 0.166282 18.1226C-0.056599 17.7345 -0.0554638 17.2567 0.169944 16.8701L8.91994 1.87012C9.14396 1.4861 9.55568 1.25 10.0003 1.25Z" fill="#FACB3D"/>
<path d="M8.75 15C8.75 14.3096 9.30964 13.75 10 13.75C10.6903 13.75 11.25 14.3097 11.25 15C11.25 15.6903 10.6903 16.25 10 16.25C9.30964 16.25 8.75 15.6904 8.75 15Z" fill="#825803"/>
<path d="M9.375 12.5V6.25H10.625V12.5H9.375Z" fill="#825803"/>
</svg>
