<svg width="64" height="64" viewBox="0 0 64 64" fill="none" xmlns="http://www.w3.org/2000/svg">
<mask id="mask0_banner_default_m" style="mask-type:luminance" maskUnits="userSpaceOnUse" x="3" y="4" width="58" height="57">
<path d="M60.105 4H3.5V60.065H60.105V4Z" fill="white"/>
</mask>
<g mask="url(#mask0_banner_default_m)">
<path d="M34.23 6.90479C20.285 6.90479 8.97998 18.2098 8.97998 32.1548C8.97998 46.0998 20.285 57.4048 34.23 57.4048C48.175 57.4048 59.48 46.0998 59.48 32.1548C59.48 18.2098 48.175 6.90479 34.23 6.90479ZM34.23 49.8048C24.48 49.8048 16.575 41.8998 16.575 32.1498C16.575 22.3998 24.48 14.4948 34.23 14.4948C43.98 14.4948 51.885 22.3998 51.885 32.1498C51.885 41.8998 43.98 49.8048 34.23 49.8048Z" fill="#153385" stroke="#101C3F" stroke-width="1.14286" stroke-miterlimit="10"/>
<path d="M33.2202 41.2798C38.2602 41.2798 42.3452 37.1948 42.3452 32.1548C42.3452 27.1148 38.2602 23.0298 33.2202 23.0298C28.1802 23.0298 24.0952 27.1148 24.0952 32.1548C24.0952 37.1948 28.1802 41.2798 33.2202 41.2798Z" fill="#153385" stroke="#101C3F" stroke-width="1.14286" stroke-miterlimit="10"/>
<path d="M31.9502 6.90479C18.0052 6.90479 6.7002 18.2098 6.7002 32.1498C6.7002 46.0898 18.0052 57.3998 31.9502 57.3998C45.8952 57.3998 57.2002 46.0948 57.2002 32.1498C57.2002 18.2048 45.8952 6.90479 31.9502 6.90479ZM31.9502 49.8048C22.2002 49.8048 14.2952 41.8998 14.2952 32.1498C14.2952 22.3998 22.2002 14.4948 31.9502 14.4948C41.7002 14.4948 49.6052 22.3998 49.6052 32.1498C49.6052 41.8998 41.7002 49.8048 31.9502 49.8048Z" fill="#0B64DD" stroke="#101C3F" stroke-width="1.14286" stroke-miterlimit="10"/>
<path d="M31.9502 41.2798C36.9902 41.2798 41.0752 37.1948 41.0752 32.1548C41.0752 27.1148 36.9902 23.0298 31.9502 23.0298C26.9102 23.0298 22.8252 27.1148 22.8252 32.1548C22.8252 37.1948 26.9102 41.2798 31.9502 41.2798Z" fill="#48EFCF" stroke="#101C3F" stroke-width="1.14286" stroke-miterlimit="10"/>
<path d="M31.9502 4V17.67" stroke="#153385" stroke-width="1.14286" stroke-miterlimit="10"/>
<path d="M31.9502 46.3901V60.0601" stroke="#153385" stroke-width="1.14286" stroke-miterlimit="10"/>
<path d="M60.1051 31.9302H46.4351" stroke="#153385" stroke-width="1.14286" stroke-miterlimit="10"/>
<path d="M17.17 31.9302H3.5" stroke="#153385" stroke-width="1.14286" stroke-miterlimit="10"/>
<path d="M25.4702 32.2001C25.4702 32.2001 31.2102 24.0001 38.4302 32.2001C38.4302 32.2001 32.8552 39.9101 25.4702 32.2001Z" fill="white"/>
<path d="M31.805 35.3448C33.57 35.3448 35.005 33.9098 35.005 32.1448C35.005 30.3798 33.575 28.9448 31.805 28.9448C30.035 28.9448 28.605 30.3748 28.605 32.1448C28.605 33.9148 30.035 35.3448 31.805 35.3448Z" fill="#101C3F"/>
</g>
</svg>
